<?xml version="1.0" encoding="UTF-8"?>
<svg viewBox="0 0 270 110" xmlns="http://www.w3.org/2000/svg">

<path d="M40 15h-5a10 10 0 0 0 -10 10v40a10 10 0 0 1 -10 10h-10M10 35h35M45 10v55a10 10 0 0 0 10 10h5M65 10v10M65 30v35a10 10 0 0 0 10 10h5M70 35h5a10 10 0 0 1 10 10v55M90 35h5a10 10 0 0 1 10 10v20a10 10 0 0 1 -10 10h-5M145 35h-15a10 10 0 0 0 -10 10c0 10 20 10 20 20a10 10 0 0 1 -10 10h-20M155 20v45a10 10 0 0 0 10 10h5M140 35h30M165 35h20a10 10 0 0 1 10 10v20a10 10 0 0 0 10 10h5M195 45c0 10 -20 10 -20 20a10 10 0 0 0 10 10h5M215 20v45a10 10 0 0 0 10 10h5M200 35h25a10 10 0 0 1 10 10v20a10 10 0 0 0 10 10h20M240 35h5a10 10 0 0 1 10 10c0 10 -20 10 -20 20" fill="none" stroke="#000" stroke-linecap="butt" stroke-width="10"/>
</svg>