<?xml version="1.0" encoding="UTF-8"?>
<svg viewBox="0 0 270 110" xmlns="http://www.w3.org/2000/svg">

<path d="M40 15h-5a10 10 0 0 0 -10 10v40a10 10 0 0 1 -15 8.61629M10 35h35M45 10v55a10 10 0 0 0 15 8.61629M65 10v10M65 30v35a10 10 0 0 0 10 10h5M70 35h5a10 10 0 0 1 10 10v55M90 35m0 1.38371a10 10 0 0 1 15 8.61629v20a10 10 0 0 1 -10 10h-5M145 35h-15a10 10 0 0 0 -10 10c0 10 20 10 20 20a10 10 0 0 1 -10 10h-20M155 20v45a10 10 0 0 0 15 8.61629M140 35h45a10 10 0 0 1 10 10v20a10 10 0 0 0 15 8.61629M195 45c0 10 -20 10 -20 20a10 10 0 0 0 15 8.61629M215 20v45a10 10 0 0 0 15 8.61629M200 35h25a10 10 0 0 1 10 10v20a10 10 0 0 0 10 10h15M240 35m0 1.38371a10 10 0 0 1 15 8.61629c0 10 -20 10 -20 20" fill="none" stroke="#000" stroke-linecap="butt" stroke-width="10"/>
</svg>